<svg width="181" height="29" viewBox="0 0 181 29" fill="none" xmlns="http://www.w3.org/2000/svg">
<path d="M20.2174 15.3965C20.2174 16.5566 20.0651 17.6758 19.7604 18.7539C19.4674 19.8203 19.0456 20.8223 18.4948 21.7598C17.944 22.6855 17.2878 23.5352 16.526 24.3086C15.7643 25.0703 14.9147 25.7266 13.9772 26.2773C13.0397 26.8281 12.0319 27.2559 10.9538 27.5605C9.88736 27.8535 8.77408 28 7.61392 28H0.0201721V2.79297H7.61392C8.77408 2.79297 9.88736 2.94531 10.9538 3.25C12.0319 3.54297 13.0397 3.96484 13.9772 4.51562C14.9147 5.06641 15.7643 5.72852 16.526 6.50195C17.2878 7.26367 17.944 8.11328 18.4948 9.05078C19.0456 9.97656 19.4674 10.9785 19.7604 12.0566C20.0651 13.123 20.2174 14.2363 20.2174 15.3965ZM15.1725 15.3965C15.1725 14.3535 14.9733 13.375 14.5749 12.4609C14.1881 11.5469 13.6491 10.75 12.9577 10.0703C12.278 9.37891 11.4753 8.83398 10.5495 8.43555C9.63541 8.03711 8.65689 7.83789 7.61392 7.83789H5.10025V22.9551H7.61392C8.65689 22.9551 9.63541 22.7617 10.5495 22.375C11.4753 21.9766 12.278 21.4375 12.9577 20.7578C13.6491 20.0664 14.1881 19.2637 14.5749 18.3496C14.9733 17.4238 15.1725 16.4395 15.1725 15.3965ZM27.4319 28H22.6331V9.17383H23.7933L25.3753 11.4062C26.1487 10.7031 27.0276 10.1641 28.012 9.78906C28.9964 9.40234 30.0159 9.20898 31.0706 9.20898H35.3069V13.9902H31.0706C30.5667 13.9902 30.0921 14.084 29.6468 14.2715C29.2015 14.459 28.8147 14.7168 28.4866 15.0449C28.1585 15.373 27.9007 15.7598 27.7132 16.2051C27.5257 16.6504 27.4319 17.125 27.4319 17.6289V28ZM42.7675 4.05859C42.7675 4.50391 42.6796 4.91992 42.5038 5.30664C42.3398 5.69336 42.1113 6.0332 41.8183 6.32617C41.5253 6.60742 41.1796 6.83594 40.7812 7.01172C40.3945 7.17578 39.9784 7.25781 39.5331 7.25781C39.0878 7.25781 38.6659 7.17578 38.2675 7.01172C37.8808 6.83594 37.5409 6.60742 37.248 6.32617C36.9667 6.0332 36.7382 5.69336 36.5624 5.30664C36.3984 4.91992 36.3163 4.50391 36.3163 4.05859C36.3163 3.625 36.3984 3.21484 36.5624 2.82812C36.7382 2.42969 36.9667 2.08984 37.248 1.80859C37.5409 1.51562 37.8808 1.28711 38.2675 1.12305C38.6659 0.947266 39.0878 0.859375 39.5331 0.859375C39.9784 0.859375 40.3945 0.947266 40.7812 1.12305C41.1796 1.28711 41.5253 1.51562 41.8183 1.80859C42.1113 2.08984 42.3398 2.42969 42.5038 2.82812C42.6796 3.21484 42.7675 3.625 42.7675 4.05859ZM41.9413 28H37.1073V9.17383H41.9413V28ZM50.5269 28L43.355 9.17383H48.8218L52.9351 20.916L57.0308 9.17383H62.5152L55.3433 28H50.5269ZM70.8371 23.3945C71.0246 23.4531 71.2121 23.4941 71.3996 23.5176C71.5871 23.5293 71.7746 23.5352 71.9621 23.5352C72.4308 23.5352 72.882 23.4707 73.3156 23.3418C73.7492 23.2129 74.1535 23.0312 74.5285 22.7969C74.9152 22.5508 75.2551 22.2578 75.548 21.918C75.8527 21.5664 76.0988 21.1797 76.2863 20.7578L79.8019 24.291C79.3566 24.9238 78.841 25.4922 78.2551 25.9961C77.6808 26.5 77.0539 26.9277 76.3742 27.2793C75.7062 27.6309 74.9973 27.8945 74.2473 28.0703C73.509 28.2578 72.7473 28.3516 71.9621 28.3516C70.6379 28.3516 69.3898 28.1055 68.218 27.6133C67.0578 27.1211 66.0383 26.4355 65.1594 25.5566C64.2922 24.6777 63.6066 23.6348 63.1027 22.4277C62.5988 21.209 62.3469 19.873 62.3469 18.4199C62.3469 16.9316 62.5988 15.5723 63.1027 14.3418C63.6066 13.1113 64.2922 12.0625 65.1594 11.1953C66.0383 10.3281 67.0578 9.6543 68.218 9.17383C69.3898 8.69336 70.6379 8.45312 71.9621 8.45312C72.7473 8.45312 73.5148 8.54688 74.2648 8.73438C75.0148 8.92188 75.7238 9.19141 76.3918 9.54297C77.0715 9.89453 77.7043 10.3281 78.2902 10.8438C78.8762 11.3477 79.3918 11.916 79.8371 12.5488L70.8371 23.3945ZM73.298 13.498C73.0754 13.416 72.8527 13.3633 72.6301 13.3398C72.4191 13.3164 72.1965 13.3047 71.9621 13.3047C71.3058 13.3047 70.6848 13.4277 70.0988 13.6738C69.5246 13.9082 69.0207 14.248 68.5871 14.6934C68.1652 15.1387 67.8312 15.6777 67.5851 16.3105C67.3391 16.9316 67.216 17.6348 67.216 18.4199C67.216 18.5957 67.2219 18.7949 67.2336 19.0176C67.257 19.2402 67.2863 19.4688 67.3215 19.7031C67.3683 19.9258 67.4211 20.1426 67.4797 20.3535C67.5383 20.5645 67.6144 20.752 67.7082 20.916L73.298 13.498ZM86.6297 28H81.8309V9.17383H82.991L84.5731 11.002C85.3465 10.2988 86.2195 9.75977 87.1922 9.38477C88.1766 8.99805 89.202 8.80469 90.2684 8.80469C91.4168 8.80469 92.5008 9.02734 93.5203 9.47266C94.5399 9.90625 95.4305 10.5098 96.1922 11.2832C96.9539 12.0449 97.5516 12.9414 97.9852 13.9727C98.4305 14.9922 98.6531 16.082 98.6531 17.2422V28H93.8543V17.2422C93.8543 16.75 93.7606 16.2871 93.5731 15.8535C93.3856 15.4082 93.1277 15.0215 92.7996 14.6934C92.4715 14.3652 92.0906 14.1074 91.657 13.9199C91.2234 13.7324 90.7606 13.6387 90.2684 13.6387C89.7645 13.6387 89.2899 13.7324 88.8445 13.9199C88.3992 14.1074 88.0125 14.3652 87.6844 14.6934C87.3563 15.0215 87.0984 15.4082 86.9109 15.8535C86.7234 16.2871 86.6297 16.75 86.6297 17.2422V28ZM107.204 7.83789V17.9277H112.248C112.94 17.9277 113.59 17.7988 114.2 17.541C114.809 17.2715 115.342 16.9082 115.799 16.4512C116.256 15.9941 116.614 15.4609 116.872 14.8516C117.141 14.2305 117.276 13.5742 117.276 12.8828C117.276 12.1914 117.141 11.541 116.872 10.9316C116.614 10.3105 116.256 9.77148 115.799 9.31445C115.342 8.85742 114.809 8.5 114.2 8.24219C113.59 7.97266 112.94 7.83789 112.248 7.83789H107.204ZM107.204 28H102.159V2.79297H112.248C113.174 2.79297 114.065 2.91602 114.92 3.16211C115.776 3.39648 116.573 3.73633 117.311 4.18164C118.061 4.61523 118.741 5.14258 119.35 5.76367C119.971 6.37305 120.498 7.05273 120.932 7.80273C121.377 8.55273 121.717 9.35547 121.952 10.2109C122.198 11.0664 122.321 11.957 122.321 12.8828C122.321 14.2656 122.057 15.5723 121.53 16.8027C121.002 18.0215 120.282 19.0879 119.368 20.002C118.454 20.916 117.381 21.6367 116.151 22.1641C114.932 22.6914 113.631 22.9551 112.248 22.9551H107.204V28ZM142.578 28H141.418L139.555 25.416C139.098 25.8262 138.611 26.2129 138.096 26.5762C137.592 26.9277 137.059 27.2383 136.496 27.5078C135.934 27.7656 135.354 27.9707 134.756 28.123C134.17 28.2754 133.572 28.3516 132.963 28.3516C131.639 28.3516 130.391 28.1289 129.219 27.6836C128.059 27.2383 127.039 26.5938 126.16 25.75C125.293 24.8945 124.607 23.8516 124.104 22.6211C123.6 21.3906 123.348 19.9902 123.348 18.4199C123.348 16.9551 123.6 15.6133 124.104 14.3945C124.607 13.1641 125.293 12.1094 126.16 11.2305C127.039 10.3516 128.059 9.67188 129.219 9.19141C130.391 8.69922 131.639 8.45312 132.963 8.45312C133.572 8.45312 134.176 8.5293 134.774 8.68164C135.371 8.83398 135.951 9.04492 136.514 9.31445C137.076 9.58398 137.609 9.90039 138.113 10.2637C138.629 10.627 139.109 11.0195 139.555 11.4414L141.418 9.20898H142.578V28ZM137.744 18.4199C137.744 17.7637 137.615 17.1309 137.357 16.5215C137.111 15.9004 136.772 15.3555 136.338 14.8867C135.904 14.4062 135.395 14.0254 134.809 13.7441C134.234 13.4512 133.619 13.3047 132.963 13.3047C132.307 13.3047 131.686 13.416 131.1 13.6387C130.525 13.8613 130.022 14.1895 129.588 14.623C129.166 15.0566 128.832 15.5957 128.586 16.2402C128.34 16.873 128.217 17.5996 128.217 18.4199C128.217 19.2402 128.34 19.9727 128.586 20.6172C128.832 21.25 129.166 21.7832 129.588 22.2168C130.022 22.6504 130.525 22.9785 131.1 23.2012C131.686 23.4238 132.307 23.5352 132.963 23.5352C133.619 23.5352 134.234 23.3945 134.809 23.1133C135.395 22.8203 135.904 22.4395 136.338 21.9707C136.772 21.4902 137.111 20.9453 137.357 20.3359C137.615 19.7148 137.744 19.0762 137.744 18.4199ZM156.156 28H145.187V23.2188H156.156C156.484 23.2188 156.765 23.1016 157 22.8672C157.234 22.6328 157.351 22.3516 157.351 22.0234C157.351 21.6836 157.234 21.4609 157 21.3555C156.765 21.25 156.484 21.1973 156.156 21.1973H151.164C150.332 21.1973 149.552 21.0391 148.826 20.7227C148.099 20.4062 147.467 19.9785 146.927 19.4395C146.388 18.8887 145.961 18.25 145.644 17.5234C145.34 16.7969 145.187 16.0176 145.187 15.1855C145.187 14.3535 145.34 13.5742 145.644 12.8477C145.961 12.1211 146.388 11.4883 146.927 10.9492C147.467 10.4102 148.099 9.98828 148.826 9.68359C149.552 9.36719 150.332 9.20898 151.164 9.20898H160.884V13.9902H151.164C150.836 13.9902 150.554 14.1074 150.32 14.3418C150.086 14.5762 149.968 14.8574 149.968 15.1855C149.968 15.5254 150.086 15.8184 150.32 16.0645C150.554 16.2988 150.836 16.416 151.164 16.416H156.156C156.976 16.416 157.75 16.5566 158.476 16.8379C159.203 17.1074 159.836 17.4883 160.375 17.9805C160.914 18.4727 161.342 19.0645 161.658 19.7559C161.974 20.4473 162.133 21.2031 162.133 22.0234C162.133 22.8555 161.974 23.6348 161.658 24.3613C161.342 25.0762 160.914 25.709 160.375 26.2598C159.836 26.7988 159.203 27.2266 158.476 27.543C157.75 27.8477 156.976 28 156.156 28ZM174.603 28H163.634V23.2188H174.603C174.931 23.2188 175.212 23.1016 175.447 22.8672C175.681 22.6328 175.798 22.3516 175.798 22.0234C175.798 21.6836 175.681 21.4609 175.447 21.3555C175.212 21.25 174.931 21.1973 174.603 21.1973H169.611C168.779 21.1973 167.999 21.0391 167.273 20.7227C166.546 20.4062 165.913 19.9785 165.374 19.4395C164.835 18.8887 164.408 18.25 164.091 17.5234C163.786 16.7969 163.634 16.0176 163.634 15.1855C163.634 14.3535 163.786 13.5742 164.091 12.8477C164.408 12.1211 164.835 11.4883 165.374 10.9492C165.913 10.4102 166.546 9.98828 167.273 9.68359C167.999 9.36719 168.779 9.20898 169.611 9.20898H179.331V13.9902H169.611C169.283 13.9902 169.001 14.1074 168.767 14.3418C168.533 14.5762 168.415 14.8574 168.415 15.1855C168.415 15.5254 168.533 15.8184 168.767 16.0645C169.001 16.2988 169.283 16.416 169.611 16.416H174.603C175.423 16.416 176.197 16.5566 176.923 16.8379C177.65 17.1074 178.283 17.4883 178.822 17.9805C179.361 18.4727 179.788 19.0645 180.105 19.7559C180.421 20.4473 180.579 21.2031 180.579 22.0234C180.579 22.8555 180.421 23.6348 180.105 24.3613C179.788 25.0762 179.361 25.709 178.822 26.2598C178.283 26.7988 177.65 27.2266 176.923 27.543C176.197 27.8477 175.423 28 174.603 28Z" fill="#005985"/>
</svg>
